<?xml version="1.0" encoding="UTF-8"?> <svg xmlns="http://www.w3.org/2000/svg" width="234" height="37" viewBox="0 0 234 37" fill="none"> <path d="M18.9402 7.87342H7.92072L9.90026 1.00003H20.9201L18.9402 7.87342ZM233.123 1.00003L231.04 7.87342H126.897L128.876 1.00003H233.123ZM38.2154 7.87342H26.5232L36.0488 1.00003H47.0682L38.2154 7.87342ZM27.7934 15.4564L39.56 27.1484H27.8678L17.0351 16.8384H16.3627L13.4115 27.1484H2.39209L7.32281 9.92784H35.5257L27.7934 15.4564ZM49.5588 1.00003H86.7269L84.7472 7.87342H47.5793L49.5588 1.00003ZM53.0705 27.1484H42.0507L46.9814 9.92784H84.1495L79.2186 27.1484H68.199L71.15 16.8384H56.0213L53.0705 27.1484ZM89.2176 1.00003H126.386L124.406 7.87342H87.2379L89.2176 1.00003ZM121.828 16.8384H108.082L118.877 27.1484H106.513L95.6801 16.8384L92.7291 27.1484H81.7093L86.6403 9.92784H123.808L121.828 16.8384ZM134.442 27.1484L139.373 9.92784H150.393L145.462 27.1484H134.442Z" fill="url(#paint0_linear)"></path> <path d="M18.9402 7.87342H7.92072L9.90026 1.00003H20.9201L18.9402 7.87342ZM233.123 1.00003L231.04 7.87342H126.897L128.876 1.00003H233.123ZM38.2154 7.87342H26.5232L36.0488 1.00003H47.0682L38.2154 7.87342ZM27.7934 15.4564L39.56 27.1484H27.8678L17.0351 16.8384H16.3627L13.4115 27.1484H2.39209L7.32281 9.92784H35.5257L27.7934 15.4564ZM49.5588 1.00003H86.7269L84.7472 7.87342H47.5793L49.5588 1.00003ZM53.0705 27.1484H42.0507L46.9814 9.92784H84.1495L79.2186 27.1484H68.199L71.15 16.8384H56.0213L53.0705 27.1484ZM89.2176 1.00003H126.386L124.406 7.87342H87.2379L89.2176 1.00003ZM121.828 16.8384H108.082L118.877 27.1484H106.513L95.6801 16.8384L92.7291 27.1484H81.7093L86.6403 9.92784H123.808L121.828 16.8384ZM134.442 27.1484L139.373 9.92784H150.393L145.462 27.1484H134.442Z" stroke="url(#paint1_linear)" stroke-width="0.756"></path> <path fill-rule="evenodd" clip-rule="evenodd" d="M153.201 10.0417H190.369L188.389 16.9149H151.221L153.201 10.0417ZM147.661 29.3167L150.624 18.9695H161.644L158.692 29.3167H173.821L176.772 18.9695H187.792L182.861 36.1899H0L2.08277 29.3167H147.661ZM230.028 10.0417L228.048 16.9149H190.88L192.86 10.0417H230.028ZM190.282 18.9695H201.302L196.371 36.1899H185.351L190.282 18.9695ZM216.431 18.9695H227.45L222.519 36.1899H211.5L216.431 18.9695Z" fill="url(#paint2_linear)"></path> <defs> <linearGradient id="paint0_linear" x1="2.39209" y1="14.0742" x2="233.123" y2="14.0742" gradientUnits="userSpaceOnUse"> <stop stop-color="#232526"></stop> <stop offset="1" stop-color="#414345"></stop> </linearGradient> <linearGradient id="paint1_linear" x1="2.39209" y1="14.0742" x2="233.123" y2="14.0742" gradientUnits="userSpaceOnUse"> <stop stop-color="#232526"></stop> <stop offset="1" stop-color="#414345"></stop> </linearGradient> <linearGradient id="paint2_linear" x1="230.028" y1="12.4822" x2="206.864" y2="80.9096" gradientUnits="userSpaceOnUse"> <stop offset="0.609375" stop-color="#FB3F54"></stop> <stop offset="0.802083" stop-color="#FF4F93"></stop> <stop offset="1" stop-color="#FF835C"></stop> </linearGradient> </defs> </svg> 